<svg width="56" height="56" viewBox="0 0 56 56" fill="none" xmlns="http://www.w3.org/2000/svg">
<circle cx="28" cy="28" r="28" fill="white"/>
<mask id="mask0" mask-type="alpha" maskUnits="userSpaceOnUse" x="10" y="10" width="36" height="36">
<circle cx="28" cy="28" r="18" fill="#C4C4C4"/>
</mask>
<g mask="url(#mask0)">
</g>
<path d="M28 46C37.9411 46 46 37.9411 46 28C46 18.0589 37.9411 10 28 10C18.0589 10 10 18.0589 10 28C10 37.9411 18.0589 46 28 46Z" fill="#2E3148"/>
<path d="M28 38.4444C33.7684 38.4444 38.4445 33.7683 38.4445 28C38.4445 22.2317 33.7684 17.5555 28 17.5555C22.2317 17.5555 17.5556 22.2317 17.5556 28C17.5556 33.7683 22.2317 38.4444 28 38.4444Z" fill="#1B1E36"/>
<path d="M28.0371 12.2965C26.0941 12.2965 24.5186 19.3438 24.5186 28.0372C24.5186 36.7307 26.0941 43.778 28.0371 43.778C29.9801 43.778 31.5556 36.7307 31.5556 28.0372C31.5556 19.3438 29.9801 12.2965 28.0371 12.2965ZM28.28 42.8897C28.0578 43.1861 27.8357 42.9637 27.8357 42.9637C26.9408 41.9269 26.4934 40.0008 26.4934 40.0008C24.9283 34.9638 25.3008 24.149 25.3008 24.149C26.0364 15.5631 27.3744 13.5349 27.8298 13.0846C27.8763 13.0386 27.9375 13.0105 28.0026 13.0053C28.0678 13 28.1327 13.0179 28.186 13.0558C28.8467 13.5239 29.4008 15.4817 29.4008 15.4817C31.0371 21.5558 30.8889 27.2595 30.8889 27.2595C31.0371 32.2225 30.069 37.778 30.069 37.778C29.3238 42.0001 28.28 42.8897 28.28 42.8897Z" fill="#6F7390"/>
<path d="M41.6905 20.2037C40.7231 18.5177 33.8268 20.6584 26.2825 24.9845C18.7382 29.3105 13.4165 34.1845 14.3832 35.8697C15.3498 37.5549 22.2469 35.415 29.7912 31.0889C37.3355 26.7629 42.6571 21.8889 41.6905 20.2037ZM15.2757 35.6385C14.9053 35.5918 14.989 35.2874 14.989 35.2874C15.4433 33.9956 16.8891 32.6489 16.8891 32.6489C20.4809 28.7845 30.0476 23.7259 30.0476 23.7259C37.8602 20.0911 40.2869 20.2444 40.9025 20.4139C40.9657 20.4316 41.0206 20.471 41.0575 20.5252C41.0944 20.5795 41.1109 20.645 41.1041 20.7103C41.0301 21.5167 39.6041 22.9711 39.6041 22.9711C35.1527 27.4148 30.1313 30.1251 30.1313 30.1251C25.9002 32.7243 20.5995 34.648 20.5995 34.648C16.5662 36.1014 15.2758 35.6385 15.2758 35.6385H15.2757Z" fill="#6F7390"/>
<path d="M41.6561 35.9259C42.631 34.2444 37.3227 29.3481 29.8049 24.9895C22.2871 20.631 15.3917 18.4638 14.4177 20.1481C13.4437 21.8325 18.7511 26.7259 26.2732 31.0845C33.7953 35.443 40.6821 37.6104 41.6561 35.9259ZM15.0637 20.7979C14.9197 20.4564 15.2237 20.3742 15.2237 20.3742C16.5695 20.1201 18.4599 20.6992 18.4599 20.6992C23.6029 21.8704 32.7735 27.6148 32.7735 27.6148C39.8342 32.5556 40.9171 34.7318 41.0794 35.3496C41.0959 35.4129 41.0895 35.4801 41.0613 35.5392C41.0331 35.5983 40.9849 35.6455 40.9253 35.6726C40.189 36.0097 38.2171 35.5074 38.2171 35.5074C32.1393 33.8778 27.2786 30.8919 27.2786 30.8919C22.9112 28.5364 18.5927 24.9119 18.5927 24.9119C15.3112 22.149 15.0647 20.8016 15.0647 20.8016L15.0637 20.7979Z" fill="#6F7390"/>
<path d="M28 29.8518C29.0228 29.8518 29.8519 29.0227 29.8519 28C29.8519 26.9773 29.0228 26.1482 28 26.1482C26.9773 26.1482 26.1482 26.9773 26.1482 28C26.1482 29.0227 26.9773 29.8518 28 29.8518Z" fill="#B7B9C8"/>
<path d="M35.5925 22C36.1857 22 36.6666 21.5025 36.6666 20.8889C36.6666 20.2752 36.1857 19.7778 35.5925 19.7778C34.9993 19.7778 34.5184 20.2752 34.5184 20.8889C34.5184 21.5025 34.9993 22 35.5925 22Z" fill="#B7B9C8"/>
<path d="M17.9628 25.7779C18.556 25.7779 19.0368 25.2804 19.0368 24.6668C19.0368 24.0531 18.556 23.5557 17.9628 23.5557C17.3696 23.5557 16.8887 24.0531 16.8887 24.6668C16.8887 25.2804 17.3696 25.7779 17.9628 25.7779Z" fill="#B7B9C8"/>
<path d="M25.8147 39.4073C26.4079 39.4073 26.8888 38.9099 26.8888 38.2962C26.8888 37.6826 26.4079 37.1851 25.8147 37.1851C25.2215 37.1851 24.7406 37.6826 24.7406 38.2962C24.7406 38.9099 25.2215 39.4073 25.8147 39.4073Z" fill="#B7B9C8"/>
</svg>
