<svg width="56" height="56" viewBox="0 0 56 56" fill="none" xmlns="http://www.w3.org/2000/svg">
<circle cx="28" cy="28" r="28" fill="white"/>
<g clip-path="url(#clip0)">
<path d="M28.9222 12C22.2384 12.0268 16.8267 17.4386 16.7998 24.1224C16.7998 25.461 17.0159 26.7906 17.439 28.0601C17.7548 28.9243 18.6919 29.3897 19.5715 29.1225C20.4217 28.7965 20.873 27.867 20.602 26.9977C20.2427 26.0081 20.0829 24.9585 20.1302 23.9076C20.276 19.0801 24.307 15.2844 29.1344 15.4301C33.9619 15.5759 37.7577 19.6069 37.6119 24.4344C37.4752 28.9537 33.9159 32.6242 29.4016 32.8991C29.4016 32.8991 27.7 33.0026 26.8537 33.1062C26.5417 33.1509 26.2323 33.2123 25.9268 33.2903C25.8833 33.335 25.813 33.335 25.7682 33.2916L25.767 33.2903C25.7363 33.2507 25.7363 33.1944 25.767 33.1548L26.0303 31.7178L27.6284 24.5302C27.8202 23.6328 27.2487 22.7493 26.3512 22.5576C25.4537 22.3658 24.5703 22.9373 24.3785 23.8348C24.3785 23.8348 20.5777 41.4277 20.5777 41.5875C20.3603 42.4428 20.8768 43.3122 21.7321 43.5295C21.7411 43.5321 21.7513 43.5346 21.7603 43.5359H21.8485C22.7025 43.7571 23.5744 43.2431 23.7943 42.3891C23.7981 42.3751 23.802 42.361 23.8045 42.3457C23.802 42.3188 23.802 42.292 23.8045 42.2664C23.8518 42.0593 24.3312 39.7184 24.3312 39.7184C24.6943 37.9516 26.1185 36.5977 27.9007 36.3241C28.2676 36.2678 29.8095 36.1643 29.8095 36.1643C36.4677 35.5008 41.3272 29.5648 40.6624 22.9066C40.0564 16.8339 35.0256 12.1585 28.9222 12Z" fill="#1E1E1E"/>
<path d="M29.6574 39.9515C28.5643 39.7239 27.4954 40.4258 27.2679 41.5176C27.2653 41.5279 27.264 41.5381 27.2615 41.5483C27.0249 42.6337 27.7128 43.7064 28.7995 43.9429C28.8008 43.9429 28.8021 43.9429 28.8033 43.9442H28.8596C29.9233 44.2012 30.9934 43.5466 31.2491 42.4842C31.2517 42.4765 31.253 42.4675 31.2555 42.4599V42.3486C31.4435 41.2517 30.7428 40.1995 29.6574 39.9515Z" fill="#E6007A"/>
</g>
<defs>
<clipPath id="clip0">
<rect width="23.9239" height="32" fill="white" transform="translate(16.7998 12)"/>
</clipPath>
</defs>
</svg>
